<svg width="188" height="122" viewBox="0 0 188 122" fill="none" xmlns="http://www.w3.org/2000/svg">
<path d="M8.94529 121.499C9.10617 121.66 39.9868 111.044 39.9868 111.044L28.1129 83.7939L0.623901 94.3036L15.7452 102.992L8.94529 121.499Z" fill="#E9EBFF"/>
<path d="M23.4305 92.0063V54.9013C23.4305 54.9013 66.0315 47.1137 96.7225 47.5722C127.413 48.0307 159.021 53.0693 159.021 53.0693V88.69C159.021 88.69 62.825 80.0961 23.4305 92.0063Z" fill="#E9EBFF"/>
<path d="M23.2091 92.0364L39.9867 111.204V88.6895C39.9867 88.6895 25.9535 90.3681 23.2091 92.0364Z" fill="#8957E9"/>
<path d="M23.4305 54.8984C23.5644 54.8994 23.623 63.2133 23.5616 73.4672C23.5002 83.7238 23.3421 92.035 23.2082 92.035C23.0743 92.0341 23.0157 83.7211 23.0771 73.4644C23.1385 63.2115 23.2966 54.8984 23.4305 54.8984Z" fill="#8957E9"/>
<path d="M173.461 118.652C173.3 118.813 142.419 108.197 142.419 108.197L154.293 80.9473L181.782 91.4569L166.661 100.146L173.461 118.652Z" fill="#E9EBFF"/>
<path d="M159.196 89.1912L142.419 108.359V87.4727C148.011 87.6596 153.604 88.2324 159.196 89.1912Z" fill="#8957E9"/>
<path d="M159.021 53.0703C159.155 53.0694 159.303 61.1555 159.352 71.1294C159.4 81.1062 159.331 89.1913 159.197 89.1923C159.063 89.1932 158.916 81.108 158.867 71.1313C158.819 61.1583 158.887 53.0712 159.021 53.0703Z" fill="#8957E9"/>
<path d="M178.084 56.4424L180.514 59.3011L187.376 56.4424L185.375 53.4404L178.084 56.4424Z" fill="#596DE7"/>
<path d="M174.939 42.8629C174.939 44.8373 173.338 46.4368 171.365 46.4368C169.391 46.4368 167.791 44.8363 167.791 42.8629C167.791 40.8895 169.391 39.2891 171.365 39.2891C173.339 39.2891 174.939 40.8895 174.939 42.8629Z" fill="#596DE7"/>
<path d="M94.9408 96.1282C94.9408 97.1149 94.141 97.9156 93.1543 97.9156C92.1676 97.9156 91.3669 97.1159 91.3669 96.1282C91.3669 95.1415 92.1667 94.3408 93.1543 94.3408C94.141 94.3418 94.9408 95.1415 94.9408 96.1282Z" fill="#596DE7"/>
<path d="M11.7521 69.2914C11.7521 70.0401 11.1448 70.6473 10.3962 70.6473C9.64755 70.6473 9.04028 70.0401 9.04028 69.2914C9.04028 68.5428 9.64755 67.9355 10.3962 67.9355C11.1448 67.9355 11.7521 68.5428 11.7521 69.2914Z" fill="#596DE7"/>
<path d="M6.71252 54.3439L10.7142 54.5876L12.6151 46.7256L8.8775 46.8772L6.71252 54.3439Z" fill="#596DE7"/>
<path d="M131.704 117.144L133.05 120.92L141.027 119.585L139.421 116.207L131.704 117.144Z" fill="#596DE7"/>
<path d="M50.9968 95.3584L48.5324 98.5212L53.9411 104.535L55.9294 101.367L50.9968 95.3584Z" fill="#596DE7"/>
<path d="M50.6128 28.2705L58.4609 36.2716L69.5012 32.0992L69.9377 34.8378L65.1557 44.6304L69.563 51.9401L69.1937 54.1217L58.5104 52.3233L52.1949 59.2568L50.7124 58.1296L49.4038 49.3151L39.4365 44.1252L39.0001 42.1143L49.0353 39.3664L50.6128 28.2705Z" fill="#8957E9"/>
<g opacity="0.3">
<path d="M50.6128 28.2705L58.4609 36.2716L69.5012 32.0992L69.9377 34.8378L65.1557 44.6304L69.563 51.9401L69.1937 54.1217L58.5104 52.3233L52.1949 59.2568L50.7124 58.1296L49.4038 49.3151L39.4365 44.1252L39.0001 42.1143L49.0353 39.3664L50.6128 28.2705Z" fill="#121212"/>
</g>
<path d="M50.6128 26.0273L58.4609 34.0292L69.5012 32.1002L64.3167 42.0365L69.563 51.9412L58.5104 50.0809L50.7124 58.1307L49.0662 47.0441L39.0001 42.1153L49.0353 37.124L50.6128 26.0273Z" fill="#8957E9"/>
<path d="M131.922 28.2705L124.074 36.2716L113.033 32.0992L112.597 34.8378L117.379 44.6304L112.972 51.9401L113.341 54.1217L124.024 52.3233L130.34 59.2568L131.822 58.1296L133.131 49.3151L143.098 44.1252L143.534 42.1143L133.499 39.3664L131.922 28.2705Z" fill="#8957E9"/>
<g opacity="0.3">
<path d="M131.922 28.2705L124.074 36.2716L113.033 32.0992L112.597 34.8378L117.379 44.6304L112.972 51.9401L113.341 54.1217L124.024 52.3233L130.34 59.2568L131.822 58.1296L133.131 49.3151L143.098 44.1252L143.534 42.1143L133.499 39.3664L131.922 28.2705Z" fill="#121212"/>
</g>
<path d="M131.922 26.0273L124.074 34.0292L113.033 32.1002L118.218 42.0365L112.971 51.9412L124.024 50.0809L131.822 58.1307L133.468 47.0441L143.534 42.1153L133.499 37.124L131.922 26.0273Z" fill="#8957E9"/>
<path d="M91.0099 14.2383L97.5371 26.9897L112.597 26.1044L112.086 29.6117L102.522 39.738L105.115 50.3348L103.834 52.8564L91.4843 46.5927L81.1378 52.6463L79.758 50.7072L81.5186 39.4537L71.3351 29.3258L71.5684 26.7062L84.859 27.1759L91.0099 14.2383Z" fill="#8957E9"/>
<g opacity="0.3">
<path d="M91.0099 14.2383L97.5371 26.9897L112.597 26.1044L112.086 29.6117L102.522 39.738L105.115 50.3348L103.834 52.8564L91.4843 46.5927L81.1378 52.6463L79.758 50.7072L81.5186 39.4537L71.3351 29.3258L71.5684 26.7062L84.859 27.1759L91.0099 14.2383Z" fill="#121212"/>
</g>
<path d="M91.8644 11.499L98.3916 24.2512L112.597 26.103L102.487 36.2517L105.115 50.3334L92.3388 43.8542L79.7581 50.7058L81.9722 36.5522L71.5685 26.7048L85.7135 24.4366L91.8644 11.499Z" fill="#8957E9"/>
<path d="M60.3434 78.2872C59.7729 78.2872 59.1606 78.2524 58.5066 78.1828C57.8526 78.1132 57.2265 78.0297 56.6281 77.9323C56.0298 77.8349 55.5219 77.7445 55.1044 77.661L55.2923 75.0937C55.7236 75.1493 56.2315 75.212 56.816 75.2815C57.4004 75.3372 57.9848 75.3928 58.5692 75.4485C59.1537 75.4903 59.6616 75.5111 60.0929 75.5111C60.566 75.5111 60.9487 75.4555 61.2409 75.3441C61.547 75.2189 61.7697 75.038 61.9088 74.8015C62.048 74.5649 62.1175 74.2588 62.1175 73.8831C62.1175 73.5769 62.048 73.3334 61.9088 73.1525C61.7836 72.9716 61.547 72.8255 61.1992 72.7142C60.8652 72.589 60.3782 72.4707 59.7381 72.3594C58.8754 72.2063 58.1379 72.0254 57.5256 71.8167C56.9273 71.608 56.4403 71.3436 56.0646 71.0236C55.6889 70.6896 55.4175 70.2791 55.2505 69.7921C55.0836 69.2911 55.0001 68.6928 55.0001 67.9971C55.0001 66.856 55.2018 65.9655 55.6054 65.3254C56.0228 64.6853 56.6142 64.2331 57.3795 63.9687C58.1448 63.7043 59.0493 63.5721 60.0929 63.5721C60.5799 63.5721 61.1296 63.5999 61.7418 63.6556C62.3541 63.7113 62.9524 63.7739 63.5369 63.8435C64.1213 63.913 64.6292 63.9896 65.0606 64.073L64.9145 66.6821C64.497 66.6264 64.01 66.5777 63.4534 66.536C62.8968 66.4803 62.3402 66.4386 61.7836 66.4108C61.2409 66.369 60.7678 66.3481 60.3643 66.3481C59.9051 66.3481 59.5224 66.3968 59.2163 66.4942C58.9102 66.5777 58.6806 66.7169 58.5275 66.9117C58.3883 67.1065 58.3188 67.357 58.3188 67.6631C58.3188 68.011 58.3883 68.2823 58.5275 68.4771C58.6806 68.658 58.931 68.8111 59.2789 68.9363C59.6407 69.0616 60.1416 69.1937 60.7817 69.3329C61.6444 69.5277 62.368 69.7295 62.9524 69.9382C63.5508 70.1469 64.0309 70.4043 64.3926 70.7105C64.7683 71.0027 65.0327 71.3853 65.1858 71.8585C65.3528 72.3316 65.4363 72.9299 65.4363 73.6535C65.4363 74.7667 65.2345 75.6642 64.831 76.346C64.4413 77.0279 63.8639 77.5218 63.0986 77.828C62.3471 78.1341 61.4288 78.2872 60.3434 78.2872Z" fill="#596DE7"/>
<path d="M74.3962 75.2607C73.2134 75.2607 72.2672 75.0658 71.5576 74.6762C70.8618 74.2866 70.3609 73.6952 70.0547 72.9021C69.7625 72.1089 69.6164 71.107 69.6164 69.8964C69.6164 68.6302 69.7973 67.5866 70.1591 66.7656C70.5348 65.9307 71.0844 65.3115 71.808 64.9079C72.5316 64.4905 73.443 64.2818 74.5423 64.2818C76.1564 64.2818 77.367 64.6714 78.1741 65.4506C78.9951 66.2299 79.4056 67.4613 79.4056 69.145L79.2386 70.794H72.8099C72.8238 71.4619 72.963 71.9628 73.2273 72.2968C73.5056 72.6168 73.9788 72.7768 74.6467 72.7768C75.078 72.7768 75.5581 72.7699 76.0869 72.756C76.6296 72.7281 77.1653 72.7003 77.694 72.6725C78.2228 72.6446 78.675 72.6168 79.0507 72.589L79.1134 74.7597C78.7516 74.8293 78.2993 74.9058 77.7567 74.9893C77.214 75.0589 76.6504 75.1215 76.066 75.1772C75.4816 75.2328 74.925 75.2607 74.3962 75.2607ZM72.789 68.8528H76.2121C76.2121 68.0179 76.0799 67.4405 75.8155 67.1204C75.5511 66.7865 75.1267 66.6195 74.5423 66.6195C74.1527 66.6195 73.8257 66.696 73.5613 66.8491C73.3108 66.9882 73.123 67.2248 72.9978 67.5587C72.8725 67.8788 72.8029 68.3101 72.789 68.8528Z" fill="#596DE7"/>
<path d="M83.5716 74.6733V60H86.7651V74.6733H83.5716Z" fill="#596DE7"/>
<path d="M95.3642 73.2569C94.1814 73.2569 93.2352 73.0621 92.5255 72.6725C91.8298 72.2829 91.3288 71.6915 91.0227 70.8983C90.7305 70.1052 90.5844 69.1033 90.5844 67.8927C90.5844 66.6264 90.7653 65.5828 91.1271 64.7618C91.5028 63.9269 92.0524 63.3077 92.776 62.9042C93.4996 62.4867 94.411 62.278 95.5103 62.278C97.1244 62.278 98.335 62.6676 99.1421 63.4469C99.9631 64.2261 100.374 65.4576 100.374 67.1413L100.207 68.7902H93.7779C93.7918 69.4581 93.9309 69.9591 94.1953 70.293C94.4736 70.6131 94.9467 70.7731 95.6146 70.7731C96.046 70.7731 96.5261 70.7661 97.0548 70.7522C97.5975 70.7244 98.1333 70.6966 98.662 70.6687C99.1908 70.6409 99.643 70.6131 100.019 70.5852L100.081 72.756C99.7196 72.8255 99.2673 72.9021 98.7246 72.9856C98.182 73.0551 97.6184 73.1178 97.034 73.1734C96.4496 73.2291 95.8929 73.2569 95.3642 73.2569ZM93.757 66.8491H97.1801C97.1801 66.0142 97.0479 65.4367 96.7835 65.1167C96.5191 64.7827 96.0947 64.6157 95.5103 64.6157C95.1207 64.6157 94.7937 64.6923 94.5293 64.8453C94.2788 64.9845 94.091 65.221 93.9657 65.555C93.8405 65.875 93.7709 66.3064 93.757 66.8491Z" fill="#596DE7"/>
<path d="M108.437 75.7616C107.922 75.7616 107.393 75.7338 106.85 75.6781C106.308 75.6224 105.807 75.5598 105.347 75.4903C104.888 75.4068 104.506 75.3302 104.199 75.2607L104.304 72.9647C104.666 73.0064 105.076 73.0551 105.535 73.1108C105.994 73.1665 106.447 73.2152 106.892 73.2569C107.337 73.2986 107.699 73.3195 107.977 73.3195C108.353 73.3195 108.659 73.2917 108.896 73.236C109.132 73.1804 109.306 73.083 109.418 72.9438C109.543 72.8047 109.605 72.6099 109.605 72.3594C109.605 72.1785 109.543 72.0324 109.418 71.9211C109.306 71.8098 109.097 71.7193 108.791 71.6497C108.499 71.5662 108.061 71.4827 107.476 71.3993C106.697 71.2879 106.057 71.1279 105.556 70.9192C105.055 70.6966 104.686 70.3765 104.45 69.9591C104.227 69.5277 104.116 68.9572 104.116 68.2475C104.116 67.3431 104.304 66.6404 104.679 66.1394C105.069 65.6385 105.584 65.2906 106.224 65.0958C106.864 64.8871 107.567 64.7827 108.332 64.7827C108.861 64.7827 109.39 64.8105 109.918 64.8662C110.461 64.9079 110.962 64.9636 111.421 65.0332C111.88 65.1028 112.263 65.1723 112.569 65.2419L112.465 67.6214C112.117 67.5657 111.707 67.517 111.233 67.4752C110.774 67.4196 110.315 67.3778 109.856 67.35C109.411 67.3222 109.035 67.3083 108.729 67.3083C108.437 67.3083 108.179 67.3361 107.956 67.3918C107.748 67.4335 107.588 67.517 107.476 67.6422C107.365 67.7535 107.309 67.9205 107.309 68.1432C107.309 68.3101 107.358 68.4493 107.456 68.5606C107.553 68.658 107.748 68.7485 108.04 68.832C108.332 68.9015 108.757 68.9711 109.313 69.0407C110.162 69.152 110.844 69.3259 111.359 69.5625C111.873 69.799 112.242 70.133 112.465 70.5644C112.688 70.9818 112.799 71.5523 112.799 72.2759C112.799 73.1247 112.632 73.8065 112.298 74.3214C111.964 74.8223 111.47 75.1911 110.816 75.4276C110.162 75.6503 109.369 75.7616 108.437 75.7616Z" fill="#596DE7"/>
<path d="M120.908 76.6382C119.767 76.6382 118.911 76.3599 118.341 75.8033C117.784 75.2467 117.506 74.3979 117.506 73.2569C117.506 72.4498 117.652 71.8306 117.944 71.3993C118.25 70.954 118.689 70.6339 119.259 70.4391C119.83 70.2443 120.518 70.126 121.325 70.0843L123.663 69.8964V69.3538C123.663 68.9363 123.545 68.6441 123.308 68.4771C123.086 68.2962 122.752 68.2058 122.306 68.2058C121.903 68.2058 121.444 68.2197 120.929 68.2475C120.414 68.2754 119.906 68.3101 119.405 68.3519C118.904 68.3936 118.473 68.4354 118.111 68.4771L118.007 66.2646C118.382 66.1672 118.828 66.0768 119.343 65.9933C119.871 65.8959 120.421 65.8194 120.991 65.7637C121.562 65.6941 122.098 65.6593 122.599 65.6593C123.503 65.6593 124.268 65.7707 124.895 65.9933C125.535 66.202 126.022 66.5638 126.356 67.0787C126.69 67.5796 126.857 68.2823 126.857 69.1868V73.7787C126.898 73.9457 126.996 74.0779 127.149 74.1753C127.316 74.2588 127.497 74.3214 127.691 74.3631L127.629 76.4921C127.42 76.506 127.197 76.52 126.961 76.5339C126.724 76.5617 126.502 76.5687 126.293 76.5547C126.084 76.5547 125.91 76.5478 125.771 76.5339C125.409 76.4921 125.096 76.4086 124.832 76.2834C124.581 76.1443 124.394 76.0051 124.268 75.866C124.046 75.9634 123.754 76.0747 123.392 76.1999C123.03 76.3251 122.633 76.4295 122.202 76.513C121.785 76.5965 121.353 76.6382 120.908 76.6382ZM121.701 74.3214C121.938 74.3214 122.174 74.2936 122.411 74.2379C122.661 74.1822 122.898 74.1196 123.12 74.0501C123.343 73.9805 123.524 73.9179 123.663 73.8622V71.7958L121.826 71.9628C121.437 72.0046 121.151 72.1298 120.971 72.3385C120.79 72.5333 120.699 72.8116 120.699 73.1734C120.699 73.5213 120.783 73.7996 120.95 74.0083C121.117 74.217 121.367 74.3214 121.701 74.3214Z" fill="#596DE7"/>
<path d="M131.807 77.6192V67.1204H135V77.6192H131.807ZM131.807 65.6593V63.1129H135V65.6593H131.807Z" fill="#596DE7"/>
</svg>
