<svg width="188" height="122" viewBox="0 0 188 122" fill="none" xmlns="http://www.w3.org/2000/svg">
<path d="M8.94526 121.5C9.10614 121.661 39.9868 111.045 39.9868 111.045L28.1129 83.7949L0.623871 94.3045L15.7452 102.993L8.94526 121.5Z" fill="#E9EBFF"/>
<path d="M23.4305 92.0072V54.9023C23.4305 54.9023 66.0315 47.1147 96.7225 47.5732C127.413 48.0317 159.021 53.0703 159.021 53.0703V88.691C159.021 88.691 62.825 80.0971 23.4305 92.0072Z" fill="#E9EBFF"/>
<path d="M23.2091 92.0374L39.9868 111.205V88.6904C39.9868 88.6904 25.9535 90.369 23.2091 92.0374Z" fill="#8957E9"/>
<path d="M23.4305 54.8994C23.5644 54.9003 23.623 63.2143 23.5616 73.4682C23.5002 83.7248 23.3421 92.036 23.2082 92.036C23.0743 92.035 23.0157 83.722 23.0771 73.4654C23.1384 63.2124 23.2965 54.8994 23.4305 54.8994Z" fill="#8957E9"/>
<path d="M173.461 118.653C173.3 118.814 142.419 108.198 142.419 108.198L154.293 80.9482L181.782 91.4579L166.661 100.147L173.461 118.653Z" fill="#E9EBFF"/>
<path d="M159.196 89.1922L142.419 108.36V87.4736C148.011 87.6606 153.604 88.2334 159.196 89.1922Z" fill="#8957E9"/>
<path d="M159.021 53.0713C159.155 53.0704 159.303 61.1565 159.352 71.1304C159.4 81.1071 159.331 89.1923 159.197 89.1933C159.063 89.1942 158.916 81.109 158.867 71.1323C158.819 61.1593 158.887 53.0722 159.021 53.0713Z" fill="#8957E9"/>
<path d="M47.4554 71.171C47.0453 68.2127 49.0234 65.7808 52.0793 65.3568C53.7755 65.1215 55.2774 65.5418 56.3581 66.536L55.0868 68.0844C54.3233 67.4185 53.4407 67.1405 52.4596 67.2772C50.6229 67.532 49.4986 69.0023 49.7543 70.8529C50.011 72.7036 51.4943 73.813 53.3301 73.5582C54.3112 73.4224 55.084 72.9147 55.6364 72.0526L57.2815 73.1955C56.5134 74.4593 55.1835 75.2731 53.4724 75.5102C50.4295 75.9315 47.8656 74.1292 47.4554 71.171Z" fill="#596DE7"/>
<path d="M57.6052 69.7738C57.3039 66.8462 59.3619 64.4432 62.4727 64.1233C65.5695 63.8052 68.085 65.7228 68.3873 68.6643C68.6905 71.6067 66.6166 73.9958 63.5198 74.3148C60.41 74.6347 57.9065 72.7013 57.6052 69.7738ZM66.08 68.9024C65.8875 67.0303 64.433 65.8846 62.6735 66.066C60.914 66.2464 59.7227 67.6637 59.9152 69.5357C60.1077 71.4077 61.5622 72.5525 63.3227 72.3721C65.0803 72.1908 66.2725 70.7744 66.08 68.9024Z" fill="#596DE7"/>
<path d="M79.5217 72.874L79.1265 66.9454L76.5319 72.0175L75.5015 72.0835L72.3014 67.5108L72.6744 73.3138L70.528 73.4515L69.8919 63.5677L71.7834 63.4459L75.8781 69.3503L79.1256 62.9744L81.0041 62.8535L81.6681 72.7354L79.5217 72.874Z" fill="#596DE7"/>
<path d="M92.3247 66.1065C92.3861 68.3133 90.7698 69.7315 88.124 69.8068L86.1292 69.8626L86.2055 72.594L83.914 72.6581L83.636 62.7548L87.9232 62.6349C90.5689 62.5596 92.2624 63.8857 92.3247 66.1065ZM90.0044 66.1716C89.9737 65.0826 89.2484 64.4651 87.8478 64.5041L85.9804 64.5571L86.0772 67.9952L87.9445 67.9422C89.3451 67.9032 90.0342 67.2466 90.0044 66.1716Z" fill="#596DE7"/>
<path d="M94.0656 62.5059H96.357V70.5417H101.323V72.4091H94.0656V62.5059Z" fill="#596DE7"/>
<path d="M110.253 70.8231L110.2 72.6626L102.531 72.4394L102.819 62.5361L110.304 62.7537L110.25 64.5932L105.044 64.4416L104.982 66.5927L109.58 66.7266L109.528 68.5093L104.929 68.3754L104.863 70.6678L110.253 70.8231Z" fill="#596DE7"/>
<path d="M114.487 64.86L111.325 64.6693L111.437 62.8057L120.051 63.3255L119.938 65.1892L116.775 64.9985L116.292 73.0177L114.004 72.88L114.487 64.86Z" fill="#596DE7"/>
<path d="M128.392 72.1794L128.221 74.0114L120.585 73.3037L121.498 63.4404L128.952 64.1314L128.782 65.9634L123.597 65.4826L123.399 67.6244L127.978 68.0484L127.813 69.8238L123.234 69.3997L123.022 71.6828L128.392 72.1794Z" fill="#596DE7"/>
<path d="M131.254 64.3779L135.712 64.974C138.923 65.4028 140.865 67.6319 140.468 70.6041C140.071 73.5763 137.612 75.2168 134.4 74.788L129.942 74.1919L131.254 64.3779ZM134.538 72.9086C136.487 73.1689 137.918 72.1757 138.169 70.2972C138.421 68.4177 137.299 67.0841 135.351 66.8238L133.277 66.5466L132.464 72.6314L134.538 72.9086Z" fill="#596DE7"/>
<path d="M178.084 56.4434L180.514 59.3021L187.376 56.4434L185.375 53.4414L178.084 56.4434Z" fill="#596DE7"/>
<path d="M174.939 42.8639C174.939 44.8383 173.338 46.4378 171.365 46.4378C169.391 46.4378 167.791 44.8373 167.791 42.8639C167.791 40.8905 169.391 39.29 171.365 39.29C173.339 39.29 174.939 40.8905 174.939 42.8639Z" fill="#596DE7"/>
<path d="M94.9408 96.1292C94.9408 97.1159 94.141 97.9166 93.1543 97.9166C92.1676 97.9166 91.3669 97.1168 91.3669 96.1292C91.3669 95.1425 92.1667 94.3418 93.1543 94.3418C94.141 94.3427 94.9408 95.1425 94.9408 96.1292Z" fill="#596DE7"/>
<path d="M11.752 69.2924C11.752 70.041 11.1447 70.6483 10.3961 70.6483C9.64749 70.6483 9.04022 70.041 9.04022 69.2924C9.04022 68.5438 9.64749 67.9365 10.3961 67.9365C11.1447 67.9365 11.752 68.5438 11.752 69.2924Z" fill="#596DE7"/>
<path d="M6.7124 54.3449L10.7141 54.5885L12.6149 46.7266L8.87738 46.8781L6.7124 54.3449Z" fill="#596DE7"/>
<path d="M131.704 117.144L133.05 120.921L141.027 119.586L139.421 116.208L131.704 117.144Z" fill="#596DE7"/>
<path d="M50.9968 95.3594L48.5323 98.5222L53.941 104.536L55.9293 101.368L50.9968 95.3594Z" fill="#596DE7"/>
<path d="M50.6127 28.2715L58.4609 36.2726L69.5011 32.1002L69.9376 34.8388L65.1557 44.6314L69.563 51.9411L69.1937 54.1227L58.5103 52.3243L52.1949 59.2577L50.7124 58.1306L49.4037 49.316L39.4365 44.1262L39 42.1153L49.0352 39.3674L50.6127 28.2715Z" fill="#8957E9"/>
<g opacity="0.3">
<path d="M50.6127 28.2715L58.4609 36.2726L69.5011 32.1002L69.9376 34.8388L65.1557 44.6314L69.563 51.9411L69.1937 54.1227L58.5103 52.3243L52.1949 59.2577L50.7124 58.1306L49.4037 49.316L39.4365 44.1262L39 42.1153L49.0352 39.3674L50.6127 28.2715Z" fill="#121212"/>
</g>
<path d="M50.6127 26.0283L58.4609 34.0302L69.5011 32.1012L64.3167 42.0375L69.563 51.9421L58.5103 50.0819L50.7124 58.1317L49.0661 47.0451L39 42.1163L49.0352 37.125L50.6127 26.0283Z" fill="#8957E9"/>
<path d="M131.922 28.2715L124.073 36.2726L113.033 32.1002L112.597 34.8388L117.379 44.6314L112.971 51.9411L113.341 54.1227L124.024 52.3243L130.339 59.2577L131.822 58.1306L133.131 49.316L143.098 44.1262L143.534 42.1153L133.499 39.3674L131.922 28.2715Z" fill="#8957E9"/>
<g opacity="0.3">
<path d="M131.922 28.2715L124.073 36.2726L113.033 32.1002L112.597 34.8388L117.379 44.6314L112.971 51.9411L113.341 54.1227L124.024 52.3243L130.339 59.2577L131.822 58.1306L133.131 49.316L143.098 44.1262L143.534 42.1153L133.499 39.3674L131.922 28.2715Z" fill="#121212"/>
</g>
<path d="M131.922 26.0283L124.073 34.0302L113.033 32.1012L118.218 42.0375L112.971 51.9421L124.024 50.0819L131.822 58.1317L133.468 47.0451L143.534 42.1163L133.499 37.125L131.922 26.0283Z" fill="#8957E9"/>
<path d="M91.0099 14.2393L97.537 26.9907L112.597 26.1053L112.086 29.6126L102.522 39.739L105.115 50.3358L103.834 52.8574L91.4842 46.5937L81.1377 52.6472L79.7579 50.7082L81.5185 39.4547L71.335 29.3268L71.5683 26.7072L84.859 27.1769L91.0099 14.2393Z" fill="#8957E9"/>
<g opacity="0.3">
<path d="M91.0099 14.2393L97.537 26.9907L112.597 26.1053L112.086 29.6126L102.522 39.739L105.115 50.3358L103.834 52.8574L91.4842 46.5937L81.1377 52.6472L79.7579 50.7082L81.5185 39.4547L71.335 29.3268L71.5683 26.7072L84.859 27.1769L91.0099 14.2393Z" fill="#121212"/>
</g>
<path d="M91.8644 11.5L98.3915 24.2522L112.597 26.1039L102.487 36.2527L105.115 50.3344L92.3387 43.8552L79.758 50.7068L81.9721 36.5532L71.5684 26.7057L85.7134 24.4376L91.8644 11.5Z" fill="#8957E9"/>
</svg>
