<svg width="188" height="122" viewBox="0 0 188 122" fill="none" xmlns="http://www.w3.org/2000/svg">
<path d="M8.94529 121.499C9.10617 121.66 39.9868 111.044 39.9868 111.044L28.1129 83.7939L0.623901 94.3036L15.7452 102.992L8.94529 121.499Z" fill="#E9EBFF"/>
<path d="M23.4305 92.0063V54.9013C23.4305 54.9013 66.0315 47.1137 96.7225 47.5722C127.413 48.0307 159.021 53.0693 159.021 53.0693V88.69C159.021 88.69 62.825 80.0961 23.4305 92.0063Z" fill="#E9EBFF"/>
<path d="M23.2091 92.0364L39.9867 111.204V88.6895C39.9867 88.6895 25.9535 90.3681 23.2091 92.0364Z" fill="#8957E9"/>
<path d="M23.4305 54.8984C23.5644 54.8994 23.623 63.2133 23.5616 73.4672C23.5002 83.7238 23.3421 92.035 23.2082 92.035C23.0743 92.0341 23.0157 83.7211 23.0771 73.4644C23.1385 63.2115 23.2966 54.8984 23.4305 54.8984Z" fill="#8957E9"/>
<path d="M173.461 118.652C173.3 118.813 142.419 108.197 142.419 108.197L154.293 80.9473L181.782 91.4569L166.661 100.146L173.461 118.652Z" fill="#E9EBFF"/>
<path d="M159.196 89.1912L142.419 108.359V87.4727C148.011 87.6596 153.604 88.2324 159.196 89.1912Z" fill="#8957E9"/>
<path d="M159.021 53.0703C159.155 53.0694 159.303 61.1555 159.351 71.1294C159.4 81.1062 159.331 89.1913 159.197 89.1923C159.063 89.1932 158.916 81.108 158.867 71.1313C158.819 61.1583 158.887 53.0712 159.021 53.0703Z" fill="#8957E9"/>
<path d="M178.084 56.4424L180.514 59.3011L187.376 56.4424L185.375 53.4404L178.084 56.4424Z" fill="#596DE7"/>
<path d="M174.939 42.8629C174.939 44.8373 173.338 46.4368 171.365 46.4368C169.391 46.4368 167.791 44.8363 167.791 42.8629C167.791 40.8895 169.391 39.2891 171.365 39.2891C173.339 39.2891 174.939 40.8895 174.939 42.8629Z" fill="#596DE7"/>
<path d="M94.9408 96.1282C94.9408 97.1149 94.141 97.9156 93.1543 97.9156C92.1676 97.9156 91.3669 97.1159 91.3669 96.1282C91.3669 95.1415 92.1667 94.3408 93.1543 94.3408C94.141 94.3418 94.9408 95.1415 94.9408 96.1282Z" fill="#596DE7"/>
<path d="M11.7521 69.2914C11.7521 70.0401 11.1448 70.6473 10.3962 70.6473C9.64755 70.6473 9.04028 70.0401 9.04028 69.2914C9.04028 68.5428 9.64755 67.9355 10.3962 67.9355C11.1448 67.9355 11.7521 68.5428 11.7521 69.2914Z" fill="#596DE7"/>
<path d="M6.71252 54.3439L10.7142 54.5876L12.6151 46.7256L8.8775 46.8772L6.71252 54.3439Z" fill="#596DE7"/>
<path d="M131.704 117.144L133.05 120.92L141.027 119.585L139.421 116.207L131.704 117.144Z" fill="#596DE7"/>
<path d="M50.9968 95.3584L48.5324 98.5212L53.9411 104.535L55.9294 101.367L50.9968 95.3584Z" fill="#596DE7"/>
<path d="M50.6128 28.2705L58.4609 36.2716L69.5012 32.0992L69.9377 34.8378L65.1557 44.6304L69.563 51.9401L69.1937 54.1217L58.5104 52.3233L52.1949 59.2568L50.7124 58.1296L49.4038 49.3151L39.4365 44.1252L39.0001 42.1143L49.0353 39.3664L50.6128 28.2705Z" fill="#8957E9"/>
<g opacity="0.3">
<path d="M50.6128 28.2705L58.4609 36.2716L69.5012 32.0992L69.9377 34.8378L65.1557 44.6304L69.563 51.9401L69.1937 54.1217L58.5104 52.3233L52.1949 59.2568L50.7124 58.1296L49.4038 49.3151L39.4365 44.1252L39.0001 42.1143L49.0353 39.3664L50.6128 28.2705Z" fill="#121212"/>
</g>
<path d="M50.6128 26.0273L58.4609 34.0292L69.5012 32.1002L64.3167 42.0365L69.563 51.9412L58.5104 50.0809L50.7124 58.1307L49.0662 47.0441L39.0001 42.1153L49.0353 37.124L50.6128 26.0273Z" fill="#8957E9"/>
<path d="M131.922 28.2705L124.073 36.2716L113.033 32.0992L112.597 34.8378L117.379 44.6304L112.971 51.9401L113.341 54.1217L124.024 52.3233L130.339 59.2568L131.822 58.1296L133.131 49.3151L143.098 44.1252L143.534 42.1143L133.499 39.3664L131.922 28.2705Z" fill="#8957E9"/>
<g opacity="0.3">
<path d="M131.922 28.2705L124.073 36.2716L113.033 32.0992L112.597 34.8378L117.379 44.6304L112.971 51.9401L113.341 54.1217L124.024 52.3233L130.339 59.2568L131.822 58.1296L133.131 49.3151L143.098 44.1252L143.534 42.1143L133.499 39.3664L131.922 28.2705Z" fill="#121212"/>
</g>
<path d="M131.922 26.0273L124.073 34.0292L113.033 32.1002L118.218 42.0365L112.971 51.9412L124.024 50.0809L131.822 58.1307L133.468 47.0441L143.534 42.1153L133.499 37.124L131.922 26.0273Z" fill="#8957E9"/>
<path d="M91.0099 14.2383L97.5371 26.9897L112.597 26.1044L112.086 29.6117L102.522 39.738L105.115 50.3348L103.834 52.8564L91.4843 46.5927L81.1378 52.6463L79.758 50.7072L81.5186 39.4537L71.3351 29.3258L71.5684 26.7062L84.859 27.1759L91.0099 14.2383Z" fill="#8957E9"/>
<g opacity="0.3">
<path d="M91.0099 14.2383L97.5371 26.9897L112.597 26.1044L112.086 29.6117L102.522 39.738L105.115 50.3348L103.834 52.8564L91.4843 46.5927L81.1378 52.6463L79.758 50.7072L81.5186 39.4537L71.3351 29.3258L71.5684 26.7062L84.859 27.1759L91.0099 14.2383Z" fill="#121212"/>
</g>
<path d="M91.8644 11.499L98.3916 24.2512L112.597 26.103L102.487 36.2517L105.115 50.3334L92.3388 43.8542L79.7581 50.7058L81.9722 36.5522L71.5685 26.7048L85.7135 24.4366L91.8644 11.499Z" fill="#8957E9"/>
<path d="M78.8545 76V73.664H80.5025V76H78.8545ZM74.0385 79.968C73.0678 79.968 72.1985 79.7867 71.4305 79.424C70.6625 79.072 70.0598 78.5813 69.6225 77.952C69.1958 77.3333 68.9825 76.6347 68.9825 75.856C68.9825 75.632 68.9985 75.3493 69.0305 75.008C69.0625 74.6667 69.1052 74.288 69.1585 73.872C69.2118 73.456 69.2705 73.024 69.3345 72.576C69.4092 72.1173 69.4785 71.6747 69.5425 71.248L72.2625 71.6C72.1452 72.304 72.0492 72.944 71.9745 73.52C71.8998 74.0853 71.8412 74.5653 71.7985 74.96C71.7558 75.344 71.7345 75.632 71.7345 75.824C71.7345 76.1973 71.8198 76.5173 71.9905 76.784C72.1612 77.0507 72.4172 77.2587 72.7585 77.408C73.1105 77.5573 73.5372 77.632 74.0385 77.632C74.5825 77.632 75.0038 77.552 75.3025 77.392C75.6012 77.2427 75.8092 77.04 75.9265 76.784C76.0438 76.528 76.1025 76.2507 76.1025 75.952V64.8H78.8545V75.952C78.8545 76.752 78.6465 77.4507 78.2305 78.048C77.8252 78.656 77.2598 79.1253 76.5345 79.456C75.8092 79.7973 74.9772 79.968 74.0385 79.968ZM80.5025 76V73.664C80.5665 73.664 80.6145 73.6907 80.6465 73.744C80.6892 73.7973 80.7212 73.8773 80.7425 73.984C80.7745 74.08 80.7958 74.2027 80.8065 74.352C80.8172 74.4907 80.8225 74.6507 80.8225 74.832C80.8225 75.0133 80.8172 75.1787 80.8065 75.328C80.7958 75.4667 80.7745 75.5893 80.7425 75.696C80.7212 75.792 80.6892 75.8667 80.6465 75.92C80.6145 75.9733 80.5665 76 80.5025 76ZM89.9067 76V73.664H91.5707V76H89.9067ZM80.1787 76C80.1254 76 80.0774 75.9733 80.0347 75.92C79.9921 75.8667 79.9601 75.792 79.9387 75.696C79.9174 75.5893 79.9014 75.4667 79.8907 75.328C79.8694 75.1787 79.8587 75.0133 79.8587 74.832C79.8587 74.5867 79.8694 74.3787 79.8907 74.208C79.9121 74.0373 79.9494 73.904 80.0027 73.808C80.0454 73.712 80.1041 73.664 80.1787 73.664V76ZM80.1627 76V73.664H88.1627L87.1547 74.608V72C87.1547 71.5307 87.1067 71.1733 87.0107 70.928C86.9147 70.672 86.7441 70.496 86.4987 70.4C86.2534 70.2933 85.9014 70.24 85.4427 70.24C85.0161 70.24 84.6001 70.2667 84.1947 70.32C83.7894 70.3733 83.4694 70.448 83.2347 70.544L84.9627 68.96C84.8987 69.1947 84.8347 69.4933 84.7707 69.856C84.7174 70.2187 84.6694 70.6027 84.6267 71.008C84.5947 71.4133 84.5787 71.8027 84.5787 72.176C84.5787 72.496 84.5947 72.848 84.6267 73.232C84.6587 73.616 84.6961 73.9573 84.7387 74.256C84.7921 74.5547 84.8294 74.7573 84.8507 74.864L82.2427 75.584C82.1894 75.424 82.1307 75.1733 82.0667 74.832C82.0027 74.4907 81.9494 74.0907 81.9067 73.632C81.8641 73.1733 81.8427 72.688 81.8427 72.176C81.8427 71.6427 81.8641 71.1307 81.9067 70.64C81.9601 70.1387 82.0241 69.6907 82.0987 69.296C82.1734 68.8907 82.2427 68.5707 82.3067 68.336C82.5734 68.24 82.9894 68.144 83.5547 68.048C84.1201 67.952 84.7494 67.904 85.4427 67.904C86.4454 67.904 87.2721 68.0373 87.9227 68.304C88.5841 68.5707 89.0801 69.0027 89.4107 69.6C89.7414 70.1973 89.9067 71.008 89.9067 72.032V76H80.1627ZM91.5707 76V73.664C91.6241 73.664 91.6667 73.6907 91.6987 73.744C91.7414 73.7973 91.7734 73.8773 91.7947 73.984C91.8267 74.08 91.8481 74.2027 91.8587 74.352C91.8801 74.4907 91.8907 74.6507 91.8907 74.832C91.8907 75.0133 91.8801 75.1787 91.8587 75.328C91.8481 75.4667 91.8267 75.5893 91.7947 75.696C91.7734 75.792 91.7414 75.8667 91.6987 75.92C91.6667 75.9733 91.6241 76 91.5707 76ZM97.1054 76V73.664H99.2814V76H97.1054ZM99.2814 76V73.664C99.3347 73.664 99.3774 73.6907 99.4094 73.744C99.452 73.7973 99.484 73.8773 99.5054 73.984C99.5374 74.08 99.5587 74.2027 99.5694 74.352C99.5907 74.4907 99.6014 74.6507 99.6014 74.832C99.6014 75.0133 99.5907 75.1787 99.5694 75.328C99.5587 75.4667 99.5374 75.5893 99.5054 75.696C99.484 75.792 99.452 75.8667 99.4094 75.92C99.3774 75.9733 99.3347 76 99.2814 76ZM91.2494 76C91.196 76 91.148 75.9733 91.1054 75.92C91.0627 75.8667 91.0307 75.792 91.0094 75.696C90.988 75.5893 90.972 75.4667 90.9614 75.328C90.94 75.1787 90.9294 75.0133 90.9294 74.832C90.9294 74.5867 90.94 74.3787 90.9614 74.208C90.9827 74.0373 91.02 73.904 91.0734 73.808C91.116 73.712 91.1747 73.664 91.2494 73.664V76ZM91.2494 76V73.664H96.0654L94.3534 75.088V67.952H97.1054V76H91.2494ZM92.7214 66.448V64.352H95.3454V66.448H92.7214ZM96.1294 66.448V64.352H98.7374V66.448H96.1294ZM108.897 76V73.664H110.545V76H108.897ZM98.9606 76C98.9073 76 98.8593 75.9733 98.8166 75.92C98.774 75.8667 98.742 75.792 98.7206 75.696C98.6993 75.5893 98.6833 75.4667 98.6726 75.328C98.6513 75.1787 98.6406 75.0133 98.6406 74.832C98.6406 74.5867 98.6513 74.3787 98.6726 74.208C98.694 74.0373 98.7313 73.904 98.7846 73.808C98.8273 73.712 98.886 73.664 98.9606 73.664V76ZM98.9606 76V73.664H107.009L106.145 74.352V72.64C106.145 72.096 106.097 71.6747 106.001 71.376C105.905 71.0773 105.755 70.864 105.553 70.736C105.361 70.608 105.121 70.544 104.833 70.544H101.297L99.6966 68.256L100.593 66.576C100.667 66.4373 100.758 66.2773 100.865 66.096C100.971 65.904 101.115 65.664 101.297 65.376C101.478 65.088 101.713 64.7253 102.001 64.288L104.321 65.552C104.065 65.9253 103.857 66.24 103.697 66.496C103.547 66.7413 103.419 66.96 103.313 67.152C103.217 67.3333 103.121 67.5147 103.025 67.696L102.513 68.672L102.193 68.208H104.833C105.526 68.208 106.123 68.32 106.625 68.544C107.137 68.7573 107.558 69.0667 107.889 69.472C108.23 69.8773 108.481 70.352 108.641 70.896C108.811 71.4293 108.897 72.0107 108.897 72.64V76H98.9606ZM110.545 76V73.664C110.609 73.664 110.657 73.6907 110.689 73.744C110.731 73.7973 110.763 73.8773 110.785 73.984C110.817 74.08 110.838 74.2027 110.849 74.352C110.859 74.4907 110.865 74.6507 110.865 74.832C110.865 75.0133 110.859 75.1787 110.849 75.328C110.838 75.4667 110.817 75.5893 110.785 75.696C110.763 75.792 110.731 75.8667 110.689 75.92C110.657 75.9733 110.609 76 110.545 76ZM110.203 76V73.664H118.203L117.195 74.608V72C117.195 71.5307 117.147 71.1733 117.051 70.928C116.955 70.672 116.784 70.496 116.539 70.4C116.293 70.2933 115.941 70.24 115.483 70.24C115.056 70.24 114.64 70.2667 114.235 70.32C113.829 70.3733 113.509 70.448 113.275 70.544L115.003 68.96C114.939 69.1947 114.875 69.4933 114.811 69.856C114.757 70.2187 114.709 70.6027 114.667 71.008C114.635 71.4133 114.619 71.8027 114.619 72.176C114.619 72.496 114.635 72.848 114.667 73.232C114.699 73.616 114.736 73.9573 114.779 74.256C114.832 74.5547 114.869 74.7573 114.891 74.864L112.283 75.584C112.229 75.424 112.171 75.1733 112.107 74.832C112.043 74.4907 111.989 74.0907 111.947 73.632C111.904 73.1733 111.883 72.688 111.883 72.176C111.883 71.6427 111.904 71.1307 111.947 70.64C112 70.1387 112.064 69.6907 112.139 69.296C112.213 68.8907 112.283 68.5707 112.347 68.336C112.613 68.24 113.029 68.144 113.595 68.048C114.16 67.952 114.789 67.904 115.483 67.904C116.485 67.904 117.312 68.0373 117.963 68.304C118.624 68.5707 119.12 69.0027 119.451 69.6C119.781 70.1973 119.947 71.008 119.947 72.032V76H110.203ZM110.219 76C110.165 76 110.117 75.9733 110.075 75.92C110.032 75.8667 110 75.792 109.979 75.696C109.957 75.5893 109.941 75.4667 109.931 75.328C109.909 75.1787 109.899 75.0133 109.899 74.832C109.899 74.5867 109.909 74.3787 109.931 74.208C109.952 74.0373 109.989 73.904 110.043 73.808C110.085 73.712 110.144 73.664 110.219 73.664V76Z" fill="#596DE7"/>
</svg>
